# xmcd CD database file
#
# Track frame offsets:
#	150
#	17327
#	30418
#	45404
#	64831
#	83327
#	98934
#	115525
#	134974
#	149735
#	165437
#	182555
#	197749
#	211618
#	230316
#	246069
#	261247
#	278281
#
# Disc length: 3953 seconds
#
# Revision: 1
# Processed by: cddbd v1.5.2PL0 Copyright (c) Steve Scherf et al.
# Submitted via: CDex 1.51
#
DISCID=e50f6f12
DTITLE=Various Artist - RC93
DYEAR=2005
DGENRE=Country
TTITLE0=Carrie Underwood - Jesus, Take The Wheel
TTITLE1=Toby Keith - Big Blue Note
TTITLE2=Martina McBride - (I Never Promised You A) Rose Garden
TTITLE3=Sawyer Brown - They Don't Understand
TTITLE4=Sugarland - Just Might (Make A Believer)
TTITLE5=Garth Brooks - Good Ride Cowboy (Radio Edit)
TTITLE6=Trace Adkins - Honky Tonk Badonkadonk
TTITLE7=Faith Hill - Like We Never Loved At All
TTITLE8=George Strait - She Let Herself Go
TTITLE9=Tim McGraw - My Old Friend
TTITLE10=Keith Anderson - XXL
TTITLE11=Terri Clark - She Didn't Have Time
TTITLE12=Ray Scott - My Kind Of Music (Radio Edit)
TTITLE13=Brad Paisley ft. Dolly Parton - When I Get Where I'm Going
TTITLE14=Alan Jackson - USA Today
TTITLE15=Shannon Brown - Corn Fed (Radio Edit)
TTITLE16=Clint Black - Code Of The West
TTITLE17=Shania Twain - Shoes (w. Eddie Intro)
EXTD=YEAR: 2005
EXTT0=
EXTT1=
EXTT2=
EXTT3=
EXTT4=
EXTT5=
EXTT6=
EXTT7=
EXTT8=
EXTT9=
EXTT10=
EXTT11=
EXTT12=
EXTT13=
EXTT14=
EXTT15=
EXTT16=
EXTT17=
PLAYORDER=
